<svg xmlns="http://www.w3.org/2000/svg" width="768" height="768" viewBox="0 0 160 160">
  <defs>
    <linearGradient id="bg" x1="0" y1="0" x2="1" y2="1">
      <stop offset="0%" stop-color="#FFE486"/>
      <stop offset="100%" stop-color="#D88A00"/>
    </linearGradient>
    <radialGradient id="spot" cx="50%" cy="36%" r="70%">
      <stop offset="0%" stop-color="#FFFFFF" stop-opacity="0.36"/>
      <stop offset="100%" stop-color="#FFFFFF" stop-opacity="0"/>
    </radialGradient>
    <linearGradient id="goldText" x1="0" y1="0" x2="1" y2="1">
      <stop offset="0%" stop-color="#FEF9C3"/>
      <stop offset="55%" stop-color="#FDE68A"/>
      <stop offset="100%" stop-color="#F59E0B"/>
    </linearGradient>
    <filter id="shadow" x="-30%" y="-30%" width="160%" height="160%">
      <feDropShadow dx="0" dy="1.2" stdDeviation="1.0" flood-color="#000" flood-opacity="0.35"/>
    </filter>
    <path id="titleArc" d="M 20 149 Q 80 141 140 149"/>
  </defs>

  <rect width="160" height="160" rx="24" fill="url(#bg)"/>
  <rect x="6" y="6" width="148" height="148" rx="20" fill="none" stroke="#FFFFFF" stroke-opacity="0.30" stroke-width="2.8"/>
  <polygon points="49,18 51,23 56,24 52,27.5 53,32.5 49,30 45,32.5 46,27.5 42,24 47,23" fill="#FDE68A"/><polygon points="61,18 63,23 68,24 64,27.5 65,32.5 61,30 57,32.5 58,27.5 54,24 59,23" fill="#FDE68A"/><polygon points="73,18 75,23 80,24 76,27.5 77,32.5 73,30 69,32.5 70,27.5 66,24 71,23" fill="#FDE68A"/><polygon points="85,18 87,23 92,24 88,27.5 89,32.5 85,30 81,32.5 82,27.5 78,24 83,23" fill="#FDE68A"/><polygon points="97,18 99,23 104,24 100,27.5 101,32.5 97,30 93,32.5 94,27.5 90,24 95,23" fill="#FDE68A"/><rect x="132" y="14" width="16" height="9" rx="3" fill="#111827" opacity="0.82"/><text x="140" y="20.6" text-anchor="middle" font-size="5.2" font-family="Arial" fill="#FDE68A">SSR</text><rect x="132" y="26" width="16" height="9" rx="3" fill="#7C2D12" opacity="0.86"/><text x="140" y="32.6" text-anchor="middle" font-size="5.1" font-family="Arial" fill="#FDE68A">UR</text>
  <ellipse cx="80" cy="82" rx="55" ry="46" fill="url(#spot)"/>

  <!-- character: fantasy chibi hero -->
  <g filter="url(#shadow)">
    <path d="M49 112 L111 112 L107 84 Q80 64 53 84 Z" fill="#7C4A00" stroke="#1B1B1B" stroke-width="1.8"/>
    <path d="M56 112 L104 112 L101 87 Q80 74 59 87 Z" fill="#F59E0B" stroke="#1B1B1B" stroke-width="1.7"/>
    <circle cx="80" cy="86" r="25" fill="#F8D8B0" stroke="#1B1B1B" stroke-width="1.8"/>
    <polygon points="57,86 47,80 57,76" fill="#F8D8B0" stroke="#1B1B1B" stroke-width="1.6"/>
    <polygon points="103,86 113,80 103,76" fill="#F8D8B0" stroke="#1B1B1B" stroke-width="1.6"/>
    
<path d="M46 66 C52 46 70 40 80 42 C92 38 108 46 114 66 L114 73 L46 73 Z" fill="#F5E7C4" stroke="#1B1B1B" stroke-width="1.6"/>
<path d="M74 49 C77 35 84 35 88 49" fill="none" stroke="#F5E7C4" stroke-width="8" stroke-linecap="round"/>

    <ellipse cx="71" cy="87" rx="4.4" ry="6" fill="#1F2937"/>
    <ellipse cx="89" cy="87" rx="4.4" ry="6" fill="#1F2937"/>
    <circle cx="70" cy="85" r="1.4" fill="#FFFFFF"/>
    <circle cx="88" cy="85" r="1.4" fill="#FFFFFF"/>
    <circle cx="72" cy="89" r="1" fill="#CA8A04"/>
    <circle cx="90" cy="89" r="1" fill="#CA8A04"/>
    <path d="M72 97 Q80 102 88 97" stroke="#1B1B1B" stroke-width="2.2" fill="none" stroke-linecap="round"/>
    <circle cx="80" cy="80" r="2.2" fill="#EAB308"/>
    <path d="M77 80 L80 77 L83 80" stroke="#CA8A04" stroke-width="1.2" fill="none"/>
    <g><path d="M68 90 L84 112 L88 112 L72 90 Z" fill="#1F2937" opacity="0.45"/><circle cx="80" cy="88" r="3.6" fill="#FDE68A" stroke="#1B1B1B" stroke-width="1.1"/><polygon points="80,85 82,89 86,90 83,93 84,97 80,95 76,97 77,93 74,90 78,89" fill="#FDE68A" stroke="#1B1B1B" stroke-width="0.8"/><path d="M58 90 L49 96 L56 102 L66 95 Z" fill="#B45309" stroke="#1B1B1B" stroke-width="1.2"/><path d="M102 90 L111 96 L104 102 L94 95 Z" fill="#B45309" stroke="#1B1B1B" stroke-width="1.2"/><rect x="62" y="104" width="36" height="6" rx="2" fill="#7C3AED" stroke="#1B1B1B" stroke-width="1.1"/><circle cx="80" cy="107" r="2.4" fill="#FDE68A"/><path d="M57 86 Q80 70 103 86" stroke="#FDE68A" stroke-width="2" fill="none" opacity="0.9"/></g>
    <g><rect x="29" y="70" width="3.5" height="38" rx="1" fill="#7C2D12"/><polygon points="25,70 36,70 30.5,59" fill="#E5E7EB" stroke="#1B1B1B" stroke-width="1.2"/></g>
  </g>

  <rect x="10" y="126" width="140" height="24" rx="10" fill="#0F172A" opacity="0.92"/>
  <text x="80" y="132" text-anchor="middle" font-size="5.8" letter-spacing="0.7" font-family="'Noto Sans JP','Yu Gothic',Arial" fill="#FDE68A">複合 ルート</text>
  <text font-size="9.8" letter-spacing="0.22" font-weight="700" font-family="'Noto Serif JP','Yu Mincho',serif" fill="url(#goldText)" stroke="#FFFFFF" stroke-opacity="0.26" stroke-width="0.22">
    <textPath href="#titleArc" startOffset="50%" text-anchor="middle">教室の定海針</textPath>
  </text>
</svg>
